# xmcd
#
# Track frame offsets:
#	150
#	15790
#	32092
#	50120
#	78142
#	93105
#	121055
#	134395
#	145910
#	167105
#	181617
#	200847
#	212992
#	230870
#	247757
#
# Disc length: 3587
#
# Revision: 1
# Processed by: cddbd v1.5.1PL0 Copyright (c) Steve Scherf et al.
# Submitted via: ExactAudioCopy v0.95a4
# Normalized: r0:TDELIM( - )
#
DISCID=c30e010f
DTITLE=Various Artist - Rhythm and Soul n°25
DYEAR=2000
DGENRE=Soul
TTITLE0=The Jacksons - Blame It On The Boogie
TTITLE1=Emotions - Best Of My Love
TTITLE2=Earth, Wind and Fire - Got To Get You Into My Life
TTITLE3=Gloria Gaynor - Reach Out, I'll be there
TTITLE4=Karen Young - Hot Shot
TTITLE5=Gap Band - Outstanding
TTITLE6=The Foundations - Build Me Up Buttercup
TTITLE7=Wilson Pickett - Funky Broadway
TTITLE8=The Staple Singers - I'll Take You There
TTITLE9=James Brown - I Don't Mind
TTITLE10=Bill Withers - Lean On Me
TTITLE11=Aretha Franklin - (You Make Me Feel Like) A Natural Woman
TTITLE12=Marvin Gaye - Sexual Healing
TTITLE13=Kool and The Gang - Too Hot
TTITLE14=Jade - Don't Walk Away
EXTD=
EXTT0=
EXTT1=
EXTT2=
EXTT3=
EXTT4=
EXTT5=
EXTT6=
EXTT7=
EXTT8=
EXTT9=
EXTT10=
EXTT11=
EXTT12=
EXTT13=
EXTT14=
PLAYORDER=
